<svg xmlns="http://www.w3.org/2000/svg" version="1.1" xmlns:xlink="http://www.w3.org/1999/xlink" xmlns:svgjs="http://svgjs.dev/svgjs" viewBox="0 0 800 800" opacity="1"><defs><linearGradient gradientTransform="rotate(270)" x1="50%" y1="0%" x2="50%" y2="100%" id="sssquiggly-grad"><stop stop-color="hsla(0, 0%, 100%, 1.00)" stop-opacity="1" offset="0%"></stop><stop stop-color="hsla(0, 0%, 100%, 1.00)" stop-opacity="1" offset="100%"></stop></linearGradient></defs><g stroke-width="1" stroke="url(#sssquiggly-grad)" fill="none" stroke-linecap="round" transform="matrix(1,0,0,1,-5,10.499160766601562)"><path d="M10,10C28.75,12.916666666666668,60.416666666666664,34.625,100,24C139.58333333333334,13.375,158.33333333333331,-41.833333333333336,200,-41C241.66666666666669,-40.166666666666664,258.3333333333333,20.708333333333336,300,28C341.6666666666667,35.291666666666664,358.3333333333333,-8.916666666666668,400,-6C441.6666666666667,-3.083333333333333,458.3333333333333,44.083333333333336,500,42C541.6666666666666,39.916666666666664,558.3333333333334,-19.75,600,-16C641.6666666666666,-12.25,658.3333333333334,61.041666666666664,700,60C741.6666666666666,58.958333333333336,779.1666666666666,-4.125,800,-21"></path><path d="M10,10C28.75,12.916666666666668,60.416666666666664,34.625,100,24C139.58333333333334,13.375,158.33333333333331,-41.833333333333336,200,-41C241.66666666666669,-40.166666666666664,258.3333333333333,20.708333333333336,300,28C341.6666666666667,35.291666666666664,358.3333333333333,-8.916666666666668,400,-6C441.6666666666667,-3.083333333333333,458.3333333333333,44.083333333333336,500,42C541.6666666666666,39.916666666666664,558.3333333333334,-19.75,600,-16C641.6666666666666,-12.25,658.3333333333334,61.041666666666664,700,60C741.6666666666666,58.958333333333336,779.1666666666666,-4.125,800,-21" transform="matrix(1,0,0,1,0,760)"></path><path d="M10,10C28.75,12.916666666666668,60.416666666666664,34.625,100,24C139.58333333333334,13.375,158.33333333333331,-41.833333333333336,200,-41C241.66666666666669,-40.166666666666664,258.3333333333333,20.708333333333336,300,28C341.6666666666667,35.291666666666664,358.3333333333333,-8.916666666666668,400,-6C441.6666666666667,-3.083333333333333,458.3333333333333,44.083333333333336,500,42C541.6666666666666,39.916666666666664,558.3333333333334,-19.75,600,-16C641.6666666666666,-12.25,658.3333333333334,61.041666666666664,700,60C741.6666666666666,58.958333333333336,779.1666666666666,-4.125,800,-21" transform="matrix(1,0,0,1,0,750)"></path><path d="M10,10C28.75,12.916666666666668,60.416666666666664,34.625,100,24C139.58333333333334,13.375,158.33333333333331,-41.833333333333336,200,-41C241.66666666666669,-40.166666666666664,258.3333333333333,20.708333333333336,300,28C341.6666666666667,35.291666666666664,358.3333333333333,-8.916666666666668,400,-6C441.6666666666667,-3.083333333333333,458.3333333333333,44.083333333333336,500,42C541.6666666666666,39.916666666666664,558.3333333333334,-19.75,600,-16C641.6666666666666,-12.25,658.3333333333334,61.041666666666664,700,60C741.6666666666666,58.958333333333336,779.1666666666666,-4.125,800,-21" transform="matrix(1,0,0,1,0,740)"></path><path d="M10,10C28.75,12.916666666666668,60.416666666666664,34.625,100,24C139.58333333333334,13.375,158.33333333333331,-41.833333333333336,200,-41C241.66666666666669,-40.166666666666664,258.3333333333333,20.708333333333336,300,28C341.6666666666667,35.291666666666664,358.3333333333333,-8.916666666666668,400,-6C441.6666666666667,-3.083333333333333,458.3333333333333,44.083333333333336,500,42C541.6666666666666,39.916666666666664,558.3333333333334,-19.75,600,-16C641.6666666666666,-12.25,658.3333333333334,61.041666666666664,700,60C741.6666666666666,58.958333333333336,779.1666666666666,-4.125,800,-21" transform="matrix(1,0,0,1,0,730)"></path><path d="M10,10C28.75,12.916666666666668,60.416666666666664,34.625,100,24C139.58333333333334,13.375,158.33333333333331,-41.833333333333336,200,-41C241.66666666666669,-40.166666666666664,258.3333333333333,20.708333333333336,300,28C341.6666666666667,35.291666666666664,358.3333333333333,-8.916666666666668,400,-6C441.6666666666667,-3.083333333333333,458.3333333333333,44.083333333333336,500,42C541.6666666666666,39.916666666666664,558.3333333333334,-19.75,600,-16C641.6666666666666,-12.25,658.3333333333334,61.041666666666664,700,60C741.6666666666666,58.958333333333336,779.1666666666666,-4.125,800,-21" transform="matrix(1,0,0,1,0,720)"></path><path d="M10,10C28.75,12.916666666666668,60.416666666666664,34.625,100,24C139.58333333333334,13.375,158.33333333333331,-41.833333333333336,200,-41C241.66666666666669,-40.166666666666664,258.3333333333333,20.708333333333336,300,28C341.6666666666667,35.291666666666664,358.3333333333333,-8.916666666666668,400,-6C441.6666666666667,-3.083333333333333,458.3333333333333,44.083333333333336,500,42C541.6666666666666,39.916666666666664,558.3333333333334,-19.75,600,-16C641.6666666666666,-12.25,658.3333333333334,61.041666666666664,700,60C741.6666666666666,58.958333333333336,779.1666666666666,-4.125,800,-21" transform="matrix(1,0,0,1,0,710)"></path><path d="M10,10C28.75,12.916666666666668,60.416666666666664,34.625,100,24C139.58333333333334,13.375,158.33333333333331,-41.833333333333336,200,-41C241.66666666666669,-40.166666666666664,258.3333333333333,20.708333333333336,300,28C341.6666666666667,35.291666666666664,358.3333333333333,-8.916666666666668,400,-6C441.6666666666667,-3.083333333333333,458.3333333333333,44.083333333333336,500,42C541.6666666666666,39.916666666666664,558.3333333333334,-19.75,600,-16C641.6666666666666,-12.25,658.3333333333334,61.041666666666664,700,60C741.6666666666666,58.958333333333336,779.1666666666666,-4.125,800,-21" transform="matrix(1,0,0,1,0,700)"></path><path d="M10,10C28.75,12.916666666666668,60.416666666666664,34.625,100,24C139.58333333333334,13.375,158.33333333333331,-41.833333333333336,200,-41C241.66666666666669,-40.166666666666664,258.3333333333333,20.708333333333336,300,28C341.6666666666667,35.291666666666664,358.3333333333333,-8.916666666666668,400,-6C441.6666666666667,-3.083333333333333,458.3333333333333,44.083333333333336,500,42C541.6666666666666,39.916666666666664,558.3333333333334,-19.75,600,-16C641.6666666666666,-12.25,658.3333333333334,61.041666666666664,700,60C741.6666666666666,58.958333333333336,779.1666666666666,-4.125,800,-21" transform="matrix(1,0,0,1,0,690)"></path><path d="M10,10C28.75,12.916666666666668,60.416666666666664,34.625,100,24C139.58333333333334,13.375,158.33333333333331,-41.833333333333336,200,-41C241.66666666666669,-40.166666666666664,258.3333333333333,20.708333333333336,300,28C341.6666666666667,35.291666666666664,358.3333333333333,-8.916666666666668,400,-6C441.6666666666667,-3.083333333333333,458.3333333333333,44.083333333333336,500,42C541.6666666666666,39.916666666666664,558.3333333333334,-19.75,600,-16C641.6666666666666,-12.25,658.3333333333334,61.041666666666664,700,60C741.6666666666666,58.958333333333336,779.1666666666666,-4.125,800,-21" transform="matrix(1,0,0,1,0,680)"></path><path d="M10,10C28.75,12.916666666666668,60.416666666666664,34.625,100,24C139.58333333333334,13.375,158.33333333333331,-41.833333333333336,200,-41C241.66666666666669,-40.166666666666664,258.3333333333333,20.708333333333336,300,28C341.6666666666667,35.291666666666664,358.3333333333333,-8.916666666666668,400,-6C441.6666666666667,-3.083333333333333,458.3333333333333,44.083333333333336,500,42C541.6666666666666,39.916666666666664,558.3333333333334,-19.75,600,-16C641.6666666666666,-12.25,658.3333333333334,61.041666666666664,700,60C741.6666666666666,58.958333333333336,779.1666666666666,-4.125,800,-21" transform="matrix(1,0,0,1,0,670)"></path><path d="M10,10C28.75,12.916666666666668,60.416666666666664,34.625,100,24C139.58333333333334,13.375,158.33333333333331,-41.833333333333336,200,-41C241.66666666666669,-40.166666666666664,258.3333333333333,20.708333333333336,300,28C341.6666666666667,35.291666666666664,358.3333333333333,-8.916666666666668,400,-6C441.6666666666667,-3.083333333333333,458.3333333333333,44.083333333333336,500,42C541.6666666666666,39.916666666666664,558.3333333333334,-19.75,600,-16C641.6666666666666,-12.25,658.3333333333334,61.041666666666664,700,60C741.6666666666666,58.958333333333336,779.1666666666666,-4.125,800,-21" transform="matrix(1,0,0,1,0,660)"></path><path d="M10,10C28.75,12.916666666666668,60.416666666666664,34.625,100,24C139.58333333333334,13.375,158.33333333333331,-41.833333333333336,200,-41C241.66666666666669,-40.166666666666664,258.3333333333333,20.708333333333336,300,28C341.6666666666667,35.291666666666664,358.3333333333333,-8.916666666666668,400,-6C441.6666666666667,-3.083333333333333,458.3333333333333,44.083333333333336,500,42C541.6666666666666,39.916666666666664,558.3333333333334,-19.75,600,-16C641.6666666666666,-12.25,658.3333333333334,61.041666666666664,700,60C741.6666666666666,58.958333333333336,779.1666666666666,-4.125,800,-21" transform="matrix(1,0,0,1,0,650)"></path><path d="M10,10C28.75,12.916666666666668,60.416666666666664,34.625,100,24C139.58333333333334,13.375,158.33333333333331,-41.833333333333336,200,-41C241.66666666666669,-40.166666666666664,258.3333333333333,20.708333333333336,300,28C341.6666666666667,35.291666666666664,358.3333333333333,-8.916666666666668,400,-6C441.6666666666667,-3.083333333333333,458.3333333333333,44.083333333333336,500,42C541.6666666666666,39.916666666666664,558.3333333333334,-19.75,600,-16C641.6666666666666,-12.25,658.3333333333334,61.041666666666664,700,60C741.6666666666666,58.958333333333336,779.1666666666666,-4.125,800,-21" transform="matrix(1,0,0,1,0,640)"></path><path d="M10,10C28.75,12.916666666666668,60.416666666666664,34.625,100,24C139.58333333333334,13.375,158.33333333333331,-41.833333333333336,200,-41C241.66666666666669,-40.166666666666664,258.3333333333333,20.708333333333336,300,28C341.6666666666667,35.291666666666664,358.3333333333333,-8.916666666666668,400,-6C441.6666666666667,-3.083333333333333,458.3333333333333,44.083333333333336,500,42C541.6666666666666,39.916666666666664,558.3333333333334,-19.75,600,-16C641.6666666666666,-12.25,658.3333333333334,61.041666666666664,700,60C741.6666666666666,58.958333333333336,779.1666666666666,-4.125,800,-21" transform="matrix(1,0,0,1,0,630)"></path><path d="M10,10C28.75,12.916666666666668,60.416666666666664,34.625,100,24C139.58333333333334,13.375,158.33333333333331,-41.833333333333336,200,-41C241.66666666666669,-40.166666666666664,258.3333333333333,20.708333333333336,300,28C341.6666666666667,35.291666666666664,358.3333333333333,-8.916666666666668,400,-6C441.6666666666667,-3.083333333333333,458.3333333333333,44.083333333333336,500,42C541.6666666666666,39.916666666666664,558.3333333333334,-19.75,600,-16C641.6666666666666,-12.25,658.3333333333334,61.041666666666664,700,60C741.6666666666666,58.958333333333336,779.1666666666666,-4.125,800,-21" transform="matrix(1,0,0,1,0,620)"></path><path d="M10,10C28.75,12.916666666666668,60.416666666666664,34.625,100,24C139.58333333333334,13.375,158.33333333333331,-41.833333333333336,200,-41C241.66666666666669,-40.166666666666664,258.3333333333333,20.708333333333336,300,28C341.6666666666667,35.291666666666664,358.3333333333333,-8.916666666666668,400,-6C441.6666666666667,-3.083333333333333,458.3333333333333,44.083333333333336,500,42C541.6666666666666,39.916666666666664,558.3333333333334,-19.75,600,-16C641.6666666666666,-12.25,658.3333333333334,61.041666666666664,700,60C741.6666666666666,58.958333333333336,779.1666666666666,-4.125,800,-21" transform="matrix(1,0,0,1,0,610)"></path><path d="M10,10C28.75,12.916666666666668,60.416666666666664,34.625,100,24C139.58333333333334,13.375,158.33333333333331,-41.833333333333336,200,-41C241.66666666666669,-40.166666666666664,258.3333333333333,20.708333333333336,300,28C341.6666666666667,35.291666666666664,358.3333333333333,-8.916666666666668,400,-6C441.6666666666667,-3.083333333333333,458.3333333333333,44.083333333333336,500,42C541.6666666666666,39.916666666666664,558.3333333333334,-19.75,600,-16C641.6666666666666,-12.25,658.3333333333334,61.041666666666664,700,60C741.6666666666666,58.958333333333336,779.1666666666666,-4.125,800,-21" transform="matrix(1,0,0,1,0,600)"></path><path d="M10,10C28.75,12.916666666666668,60.416666666666664,34.625,100,24C139.58333333333334,13.375,158.33333333333331,-41.833333333333336,200,-41C241.66666666666669,-40.166666666666664,258.3333333333333,20.708333333333336,300,28C341.6666666666667,35.291666666666664,358.3333333333333,-8.916666666666668,400,-6C441.6666666666667,-3.083333333333333,458.3333333333333,44.083333333333336,500,42C541.6666666666666,39.916666666666664,558.3333333333334,-19.75,600,-16C641.6666666666666,-12.25,658.3333333333334,61.041666666666664,700,60C741.6666666666666,58.958333333333336,779.1666666666666,-4.125,800,-21" transform="matrix(1,0,0,1,0,590)"></path><path d="M10,10C28.75,12.916666666666668,60.416666666666664,34.625,100,24C139.58333333333334,13.375,158.33333333333331,-41.833333333333336,200,-41C241.66666666666669,-40.166666666666664,258.3333333333333,20.708333333333336,300,28C341.6666666666667,35.291666666666664,358.3333333333333,-8.916666666666668,400,-6C441.6666666666667,-3.083333333333333,458.3333333333333,44.083333333333336,500,42C541.6666666666666,39.916666666666664,558.3333333333334,-19.75,600,-16C641.6666666666666,-12.25,658.3333333333334,61.041666666666664,700,60C741.6666666666666,58.958333333333336,779.1666666666666,-4.125,800,-21" transform="matrix(1,0,0,1,0,580)"></path><path d="M10,10C28.75,12.916666666666668,60.416666666666664,34.625,100,24C139.58333333333334,13.375,158.33333333333331,-41.833333333333336,200,-41C241.66666666666669,-40.166666666666664,258.3333333333333,20.708333333333336,300,28C341.6666666666667,35.291666666666664,358.3333333333333,-8.916666666666668,400,-6C441.6666666666667,-3.083333333333333,458.3333333333333,44.083333333333336,500,42C541.6666666666666,39.916666666666664,558.3333333333334,-19.75,600,-16C641.6666666666666,-12.25,658.3333333333334,61.041666666666664,700,60C741.6666666666666,58.958333333333336,779.1666666666666,-4.125,800,-21" transform="matrix(1,0,0,1,0,570)"></path><path d="M10,10C28.75,12.916666666666668,60.416666666666664,34.625,100,24C139.58333333333334,13.375,158.33333333333331,-41.833333333333336,200,-41C241.66666666666669,-40.166666666666664,258.3333333333333,20.708333333333336,300,28C341.6666666666667,35.291666666666664,358.3333333333333,-8.916666666666668,400,-6C441.6666666666667,-3.083333333333333,458.3333333333333,44.083333333333336,500,42C541.6666666666666,39.916666666666664,558.3333333333334,-19.75,600,-16C641.6666666666666,-12.25,658.3333333333334,61.041666666666664,700,60C741.6666666666666,58.958333333333336,779.1666666666666,-4.125,800,-21" transform="matrix(1,0,0,1,0,560)"></path><path d="M10,10C28.75,12.916666666666668,60.416666666666664,34.625,100,24C139.58333333333334,13.375,158.33333333333331,-41.833333333333336,200,-41C241.66666666666669,-40.166666666666664,258.3333333333333,20.708333333333336,300,28C341.6666666666667,35.291666666666664,358.3333333333333,-8.916666666666668,400,-6C441.6666666666667,-3.083333333333333,458.3333333333333,44.083333333333336,500,42C541.6666666666666,39.916666666666664,558.3333333333334,-19.75,600,-16C641.6666666666666,-12.25,658.3333333333334,61.041666666666664,700,60C741.6666666666666,58.958333333333336,779.1666666666666,-4.125,800,-21" transform="matrix(1,0,0,1,0,550)"></path><path d="M10,10C28.75,12.916666666666668,60.416666666666664,34.625,100,24C139.58333333333334,13.375,158.33333333333331,-41.833333333333336,200,-41C241.66666666666669,-40.166666666666664,258.3333333333333,20.708333333333336,300,28C341.6666666666667,35.291666666666664,358.3333333333333,-8.916666666666668,400,-6C441.6666666666667,-3.083333333333333,458.3333333333333,44.083333333333336,500,42C541.6666666666666,39.916666666666664,558.3333333333334,-19.75,600,-16C641.6666666666666,-12.25,658.3333333333334,61.041666666666664,700,60C741.6666666666666,58.958333333333336,779.1666666666666,-4.125,800,-21" transform="matrix(1,0,0,1,0,540)"></path><path d="M10,10C28.75,12.916666666666668,60.416666666666664,34.625,100,24C139.58333333333334,13.375,158.33333333333331,-41.833333333333336,200,-41C241.66666666666669,-40.166666666666664,258.3333333333333,20.708333333333336,300,28C341.6666666666667,35.291666666666664,358.3333333333333,-8.916666666666668,400,-6C441.6666666666667,-3.083333333333333,458.3333333333333,44.083333333333336,500,42C541.6666666666666,39.916666666666664,558.3333333333334,-19.75,600,-16C641.6666666666666,-12.25,658.3333333333334,61.041666666666664,700,60C741.6666666666666,58.958333333333336,779.1666666666666,-4.125,800,-21" transform="matrix(1,0,0,1,0,530)"></path><path d="M10,10C28.75,12.916666666666668,60.416666666666664,34.625,100,24C139.58333333333334,13.375,158.33333333333331,-41.833333333333336,200,-41C241.66666666666669,-40.166666666666664,258.3333333333333,20.708333333333336,300,28C341.6666666666667,35.291666666666664,358.3333333333333,-8.916666666666668,400,-6C441.6666666666667,-3.083333333333333,458.3333333333333,44.083333333333336,500,42C541.6666666666666,39.916666666666664,558.3333333333334,-19.75,600,-16C641.6666666666666,-12.25,658.3333333333334,61.041666666666664,700,60C741.6666666666666,58.958333333333336,779.1666666666666,-4.125,800,-21" transform="matrix(1,0,0,1,0,520)"></path><path d="M10,10C28.75,12.916666666666668,60.416666666666664,34.625,100,24C139.58333333333334,13.375,158.33333333333331,-41.833333333333336,200,-41C241.66666666666669,-40.166666666666664,258.3333333333333,20.708333333333336,300,28C341.6666666666667,35.291666666666664,358.3333333333333,-8.916666666666668,400,-6C441.6666666666667,-3.083333333333333,458.3333333333333,44.083333333333336,500,42C541.6666666666666,39.916666666666664,558.3333333333334,-19.75,600,-16C641.6666666666666,-12.25,658.3333333333334,61.041666666666664,700,60C741.6666666666666,58.958333333333336,779.1666666666666,-4.125,800,-21" transform="matrix(1,0,0,1,0,510)"></path><path d="M10,10C28.75,12.916666666666668,60.416666666666664,34.625,100,24C139.58333333333334,13.375,158.33333333333331,-41.833333333333336,200,-41C241.66666666666669,-40.166666666666664,258.3333333333333,20.708333333333336,300,28C341.6666666666667,35.291666666666664,358.3333333333333,-8.916666666666668,400,-6C441.6666666666667,-3.083333333333333,458.3333333333333,44.083333333333336,500,42C541.6666666666666,39.916666666666664,558.3333333333334,-19.75,600,-16C641.6666666666666,-12.25,658.3333333333334,61.041666666666664,700,60C741.6666666666666,58.958333333333336,779.1666666666666,-4.125,800,-21" transform="matrix(1,0,0,1,0,500)"></path><path d="M10,10C28.75,12.916666666666668,60.416666666666664,34.625,100,24C139.58333333333334,13.375,158.33333333333331,-41.833333333333336,200,-41C241.66666666666669,-40.166666666666664,258.3333333333333,20.708333333333336,300,28C341.6666666666667,35.291666666666664,358.3333333333333,-8.916666666666668,400,-6C441.6666666666667,-3.083333333333333,458.3333333333333,44.083333333333336,500,42C541.6666666666666,39.916666666666664,558.3333333333334,-19.75,600,-16C641.6666666666666,-12.25,658.3333333333334,61.041666666666664,700,60C741.6666666666666,58.958333333333336,779.1666666666666,-4.125,800,-21" transform="matrix(1,0,0,1,0,490)"></path><path d="M10,10C28.75,12.916666666666668,60.416666666666664,34.625,100,24C139.58333333333334,13.375,158.33333333333331,-41.833333333333336,200,-41C241.66666666666669,-40.166666666666664,258.3333333333333,20.708333333333336,300,28C341.6666666666667,35.291666666666664,358.3333333333333,-8.916666666666668,400,-6C441.6666666666667,-3.083333333333333,458.3333333333333,44.083333333333336,500,42C541.6666666666666,39.916666666666664,558.3333333333334,-19.75,600,-16C641.6666666666666,-12.25,658.3333333333334,61.041666666666664,700,60C741.6666666666666,58.958333333333336,779.1666666666666,-4.125,800,-21" transform="matrix(1,0,0,1,0,480)"></path><path d="M10,10C28.75,12.916666666666668,60.416666666666664,34.625,100,24C139.58333333333334,13.375,158.33333333333331,-41.833333333333336,200,-41C241.66666666666669,-40.166666666666664,258.3333333333333,20.708333333333336,300,28C341.6666666666667,35.291666666666664,358.3333333333333,-8.916666666666668,400,-6C441.6666666666667,-3.083333333333333,458.3333333333333,44.083333333333336,500,42C541.6666666666666,39.916666666666664,558.3333333333334,-19.75,600,-16C641.6666666666666,-12.25,658.3333333333334,61.041666666666664,700,60C741.6666666666666,58.958333333333336,779.1666666666666,-4.125,800,-21" transform="matrix(1,0,0,1,0,470)"></path><path d="M10,10C28.75,12.916666666666668,60.416666666666664,34.625,100,24C139.58333333333334,13.375,158.33333333333331,-41.833333333333336,200,-41C241.66666666666669,-40.166666666666664,258.3333333333333,20.708333333333336,300,28C341.6666666666667,35.291666666666664,358.3333333333333,-8.916666666666668,400,-6C441.6666666666667,-3.083333333333333,458.3333333333333,44.083333333333336,500,42C541.6666666666666,39.916666666666664,558.3333333333334,-19.75,600,-16C641.6666666666666,-12.25,658.3333333333334,61.041666666666664,700,60C741.6666666666666,58.958333333333336,779.1666666666666,-4.125,800,-21" transform="matrix(1,0,0,1,0,460)"></path><path d="M10,10C28.75,12.916666666666668,60.416666666666664,34.625,100,24C139.58333333333334,13.375,158.33333333333331,-41.833333333333336,200,-41C241.66666666666669,-40.166666666666664,258.3333333333333,20.708333333333336,300,28C341.6666666666667,35.291666666666664,358.3333333333333,-8.916666666666668,400,-6C441.6666666666667,-3.083333333333333,458.3333333333333,44.083333333333336,500,42C541.6666666666666,39.916666666666664,558.3333333333334,-19.75,600,-16C641.6666666666666,-12.25,658.3333333333334,61.041666666666664,700,60C741.6666666666666,58.958333333333336,779.1666666666666,-4.125,800,-21" transform="matrix(1,0,0,1,0,450)"></path><path d="M10,10C28.75,12.916666666666668,60.416666666666664,34.625,100,24C139.58333333333334,13.375,158.33333333333331,-41.833333333333336,200,-41C241.66666666666669,-40.166666666666664,258.3333333333333,20.708333333333336,300,28C341.6666666666667,35.291666666666664,358.3333333333333,-8.916666666666668,400,-6C441.6666666666667,-3.083333333333333,458.3333333333333,44.083333333333336,500,42C541.6666666666666,39.916666666666664,558.3333333333334,-19.75,600,-16C641.6666666666666,-12.25,658.3333333333334,61.041666666666664,700,60C741.6666666666666,58.958333333333336,779.1666666666666,-4.125,800,-21" transform="matrix(1,0,0,1,0,440)"></path><path d="M10,10C28.75,12.916666666666668,60.416666666666664,34.625,100,24C139.58333333333334,13.375,158.33333333333331,-41.833333333333336,200,-41C241.66666666666669,-40.166666666666664,258.3333333333333,20.708333333333336,300,28C341.6666666666667,35.291666666666664,358.3333333333333,-8.916666666666668,400,-6C441.6666666666667,-3.083333333333333,458.3333333333333,44.083333333333336,500,42C541.6666666666666,39.916666666666664,558.3333333333334,-19.75,600,-16C641.6666666666666,-12.25,658.3333333333334,61.041666666666664,700,60C741.6666666666666,58.958333333333336,779.1666666666666,-4.125,800,-21" transform="matrix(1,0,0,1,0,430)"></path><path d="M10,10C28.75,12.916666666666668,60.416666666666664,34.625,100,24C139.58333333333334,13.375,158.33333333333331,-41.833333333333336,200,-41C241.66666666666669,-40.166666666666664,258.3333333333333,20.708333333333336,300,28C341.6666666666667,35.291666666666664,358.3333333333333,-8.916666666666668,400,-6C441.6666666666667,-3.083333333333333,458.3333333333333,44.083333333333336,500,42C541.6666666666666,39.916666666666664,558.3333333333334,-19.75,600,-16C641.6666666666666,-12.25,658.3333333333334,61.041666666666664,700,60C741.6666666666666,58.958333333333336,779.1666666666666,-4.125,800,-21" transform="matrix(1,0,0,1,0,420)"></path><path d="M10,10C28.75,12.916666666666668,60.416666666666664,34.625,100,24C139.58333333333334,13.375,158.33333333333331,-41.833333333333336,200,-41C241.66666666666669,-40.166666666666664,258.3333333333333,20.708333333333336,300,28C341.6666666666667,35.291666666666664,358.3333333333333,-8.916666666666668,400,-6C441.6666666666667,-3.083333333333333,458.3333333333333,44.083333333333336,500,42C541.6666666666666,39.916666666666664,558.3333333333334,-19.75,600,-16C641.6666666666666,-12.25,658.3333333333334,61.041666666666664,700,60C741.6666666666666,58.958333333333336,779.1666666666666,-4.125,800,-21" transform="matrix(1,0,0,1,0,410)"></path><path d="M10,10C28.75,12.916666666666668,60.416666666666664,34.625,100,24C139.58333333333334,13.375,158.33333333333331,-41.833333333333336,200,-41C241.66666666666669,-40.166666666666664,258.3333333333333,20.708333333333336,300,28C341.6666666666667,35.291666666666664,358.3333333333333,-8.916666666666668,400,-6C441.6666666666667,-3.083333333333333,458.3333333333333,44.083333333333336,500,42C541.6666666666666,39.916666666666664,558.3333333333334,-19.75,600,-16C641.6666666666666,-12.25,658.3333333333334,61.041666666666664,700,60C741.6666666666666,58.958333333333336,779.1666666666666,-4.125,800,-21" transform="matrix(1,0,0,1,0,400)"></path><path d="M10,10C28.75,12.916666666666668,60.416666666666664,34.625,100,24C139.58333333333334,13.375,158.33333333333331,-41.833333333333336,200,-41C241.66666666666669,-40.166666666666664,258.3333333333333,20.708333333333336,300,28C341.6666666666667,35.291666666666664,358.3333333333333,-8.916666666666668,400,-6C441.6666666666667,-3.083333333333333,458.3333333333333,44.083333333333336,500,42C541.6666666666666,39.916666666666664,558.3333333333334,-19.75,600,-16C641.6666666666666,-12.25,658.3333333333334,61.041666666666664,700,60C741.6666666666666,58.958333333333336,779.1666666666666,-4.125,800,-21" transform="matrix(1,0,0,1,0,390)"></path><path d="M10,10C28.75,12.916666666666668,60.416666666666664,34.625,100,24C139.58333333333334,13.375,158.33333333333331,-41.833333333333336,200,-41C241.66666666666669,-40.166666666666664,258.3333333333333,20.708333333333336,300,28C341.6666666666667,35.291666666666664,358.3333333333333,-8.916666666666668,400,-6C441.6666666666667,-3.083333333333333,458.3333333333333,44.083333333333336,500,42C541.6666666666666,39.916666666666664,558.3333333333334,-19.75,600,-16C641.6666666666666,-12.25,658.3333333333334,61.041666666666664,700,60C741.6666666666666,58.958333333333336,779.1666666666666,-4.125,800,-21" transform="matrix(1,0,0,1,0,380)"></path><path d="M10,10C28.75,12.916666666666668,60.416666666666664,34.625,100,24C139.58333333333334,13.375,158.33333333333331,-41.833333333333336,200,-41C241.66666666666669,-40.166666666666664,258.3333333333333,20.708333333333336,300,28C341.6666666666667,35.291666666666664,358.3333333333333,-8.916666666666668,400,-6C441.6666666666667,-3.083333333333333,458.3333333333333,44.083333333333336,500,42C541.6666666666666,39.916666666666664,558.3333333333334,-19.75,600,-16C641.6666666666666,-12.25,658.3333333333334,61.041666666666664,700,60C741.6666666666666,58.958333333333336,779.1666666666666,-4.125,800,-21" transform="matrix(1,0,0,1,0,370)"></path><path d="M10,10C28.75,12.916666666666668,60.416666666666664,34.625,100,24C139.58333333333334,13.375,158.33333333333331,-41.833333333333336,200,-41C241.66666666666669,-40.166666666666664,258.3333333333333,20.708333333333336,300,28C341.6666666666667,35.291666666666664,358.3333333333333,-8.916666666666668,400,-6C441.6666666666667,-3.083333333333333,458.3333333333333,44.083333333333336,500,42C541.6666666666666,39.916666666666664,558.3333333333334,-19.75,600,-16C641.6666666666666,-12.25,658.3333333333334,61.041666666666664,700,60C741.6666666666666,58.958333333333336,779.1666666666666,-4.125,800,-21" transform="matrix(1,0,0,1,0,360)"></path><path d="M10,10C28.75,12.916666666666668,60.416666666666664,34.625,100,24C139.58333333333334,13.375,158.33333333333331,-41.833333333333336,200,-41C241.66666666666669,-40.166666666666664,258.3333333333333,20.708333333333336,300,28C341.6666666666667,35.291666666666664,358.3333333333333,-8.916666666666668,400,-6C441.6666666666667,-3.083333333333333,458.3333333333333,44.083333333333336,500,42C541.6666666666666,39.916666666666664,558.3333333333334,-19.75,600,-16C641.6666666666666,-12.25,658.3333333333334,61.041666666666664,700,60C741.6666666666666,58.958333333333336,779.1666666666666,-4.125,800,-21" transform="matrix(1,0,0,1,0,350)"></path><path d="M10,10C28.75,12.916666666666668,60.416666666666664,34.625,100,24C139.58333333333334,13.375,158.33333333333331,-41.833333333333336,200,-41C241.66666666666669,-40.166666666666664,258.3333333333333,20.708333333333336,300,28C341.6666666666667,35.291666666666664,358.3333333333333,-8.916666666666668,400,-6C441.6666666666667,-3.083333333333333,458.3333333333333,44.083333333333336,500,42C541.6666666666666,39.916666666666664,558.3333333333334,-19.75,600,-16C641.6666666666666,-12.25,658.3333333333334,61.041666666666664,700,60C741.6666666666666,58.958333333333336,779.1666666666666,-4.125,800,-21" transform="matrix(1,0,0,1,0,340)"></path><path d="M10,10C28.75,12.916666666666668,60.416666666666664,34.625,100,24C139.58333333333334,13.375,158.33333333333331,-41.833333333333336,200,-41C241.66666666666669,-40.166666666666664,258.3333333333333,20.708333333333336,300,28C341.6666666666667,35.291666666666664,358.3333333333333,-8.916666666666668,400,-6C441.6666666666667,-3.083333333333333,458.3333333333333,44.083333333333336,500,42C541.6666666666666,39.916666666666664,558.3333333333334,-19.75,600,-16C641.6666666666666,-12.25,658.3333333333334,61.041666666666664,700,60C741.6666666666666,58.958333333333336,779.1666666666666,-4.125,800,-21" transform="matrix(1,0,0,1,0,330)"></path><path d="M10,10C28.75,12.916666666666668,60.416666666666664,34.625,100,24C139.58333333333334,13.375,158.33333333333331,-41.833333333333336,200,-41C241.66666666666669,-40.166666666666664,258.3333333333333,20.708333333333336,300,28C341.6666666666667,35.291666666666664,358.3333333333333,-8.916666666666668,400,-6C441.6666666666667,-3.083333333333333,458.3333333333333,44.083333333333336,500,42C541.6666666666666,39.916666666666664,558.3333333333334,-19.75,600,-16C641.6666666666666,-12.25,658.3333333333334,61.041666666666664,700,60C741.6666666666666,58.958333333333336,779.1666666666666,-4.125,800,-21" transform="matrix(1,0,0,1,0,320)"></path><path d="M10,10C28.75,12.916666666666668,60.416666666666664,34.625,100,24C139.58333333333334,13.375,158.33333333333331,-41.833333333333336,200,-41C241.66666666666669,-40.166666666666664,258.3333333333333,20.708333333333336,300,28C341.6666666666667,35.291666666666664,358.3333333333333,-8.916666666666668,400,-6C441.6666666666667,-3.083333333333333,458.3333333333333,44.083333333333336,500,42C541.6666666666666,39.916666666666664,558.3333333333334,-19.75,600,-16C641.6666666666666,-12.25,658.3333333333334,61.041666666666664,700,60C741.6666666666666,58.958333333333336,779.1666666666666,-4.125,800,-21" transform="matrix(1,0,0,1,0,310)"></path><path d="M10,10C28.75,12.916666666666668,60.416666666666664,34.625,100,24C139.58333333333334,13.375,158.33333333333331,-41.833333333333336,200,-41C241.66666666666669,-40.166666666666664,258.3333333333333,20.708333333333336,300,28C341.6666666666667,35.291666666666664,358.3333333333333,-8.916666666666668,400,-6C441.6666666666667,-3.083333333333333,458.3333333333333,44.083333333333336,500,42C541.6666666666666,39.916666666666664,558.3333333333334,-19.75,600,-16C641.6666666666666,-12.25,658.3333333333334,61.041666666666664,700,60C741.6666666666666,58.958333333333336,779.1666666666666,-4.125,800,-21" transform="matrix(1,0,0,1,0,300)"></path><path d="M10,10C28.75,12.916666666666668,60.416666666666664,34.625,100,24C139.58333333333334,13.375,158.33333333333331,-41.833333333333336,200,-41C241.66666666666669,-40.166666666666664,258.3333333333333,20.708333333333336,300,28C341.6666666666667,35.291666666666664,358.3333333333333,-8.916666666666668,400,-6C441.6666666666667,-3.083333333333333,458.3333333333333,44.083333333333336,500,42C541.6666666666666,39.916666666666664,558.3333333333334,-19.75,600,-16C641.6666666666666,-12.25,658.3333333333334,61.041666666666664,700,60C741.6666666666666,58.958333333333336,779.1666666666666,-4.125,800,-21" transform="matrix(1,0,0,1,0,290)"></path><path d="M10,10C28.75,12.916666666666668,60.416666666666664,34.625,100,24C139.58333333333334,13.375,158.33333333333331,-41.833333333333336,200,-41C241.66666666666669,-40.166666666666664,258.3333333333333,20.708333333333336,300,28C341.6666666666667,35.291666666666664,358.3333333333333,-8.916666666666668,400,-6C441.6666666666667,-3.083333333333333,458.3333333333333,44.083333333333336,500,42C541.6666666666666,39.916666666666664,558.3333333333334,-19.75,600,-16C641.6666666666666,-12.25,658.3333333333334,61.041666666666664,700,60C741.6666666666666,58.958333333333336,779.1666666666666,-4.125,800,-21" transform="matrix(1,0,0,1,0,280)"></path><path d="M10,10C28.75,12.916666666666668,60.416666666666664,34.625,100,24C139.58333333333334,13.375,158.33333333333331,-41.833333333333336,200,-41C241.66666666666669,-40.166666666666664,258.3333333333333,20.708333333333336,300,28C341.6666666666667,35.291666666666664,358.3333333333333,-8.916666666666668,400,-6C441.6666666666667,-3.083333333333333,458.3333333333333,44.083333333333336,500,42C541.6666666666666,39.916666666666664,558.3333333333334,-19.75,600,-16C641.6666666666666,-12.25,658.3333333333334,61.041666666666664,700,60C741.6666666666666,58.958333333333336,779.1666666666666,-4.125,800,-21" transform="matrix(1,0,0,1,0,270)"></path><path d="M10,10C28.75,12.916666666666668,60.416666666666664,34.625,100,24C139.58333333333334,13.375,158.33333333333331,-41.833333333333336,200,-41C241.66666666666669,-40.166666666666664,258.3333333333333,20.708333333333336,300,28C341.6666666666667,35.291666666666664,358.3333333333333,-8.916666666666668,400,-6C441.6666666666667,-3.083333333333333,458.3333333333333,44.083333333333336,500,42C541.6666666666666,39.916666666666664,558.3333333333334,-19.75,600,-16C641.6666666666666,-12.25,658.3333333333334,61.041666666666664,700,60C741.6666666666666,58.958333333333336,779.1666666666666,-4.125,800,-21" transform="matrix(1,0,0,1,0,260)"></path><path d="M10,10C28.75,12.916666666666668,60.416666666666664,34.625,100,24C139.58333333333334,13.375,158.33333333333331,-41.833333333333336,200,-41C241.66666666666669,-40.166666666666664,258.3333333333333,20.708333333333336,300,28C341.6666666666667,35.291666666666664,358.3333333333333,-8.916666666666668,400,-6C441.6666666666667,-3.083333333333333,458.3333333333333,44.083333333333336,500,42C541.6666666666666,39.916666666666664,558.3333333333334,-19.75,600,-16C641.6666666666666,-12.25,658.3333333333334,61.041666666666664,700,60C741.6666666666666,58.958333333333336,779.1666666666666,-4.125,800,-21" transform="matrix(1,0,0,1,0,250)"></path><path d="M10,10C28.75,12.916666666666668,60.416666666666664,34.625,100,24C139.58333333333334,13.375,158.33333333333331,-41.833333333333336,200,-41C241.66666666666669,-40.166666666666664,258.3333333333333,20.708333333333336,300,28C341.6666666666667,35.291666666666664,358.3333333333333,-8.916666666666668,400,-6C441.6666666666667,-3.083333333333333,458.3333333333333,44.083333333333336,500,42C541.6666666666666,39.916666666666664,558.3333333333334,-19.75,600,-16C641.6666666666666,-12.25,658.3333333333334,61.041666666666664,700,60C741.6666666666666,58.958333333333336,779.1666666666666,-4.125,800,-21" transform="matrix(1,0,0,1,0,240)"></path><path d="M10,10C28.75,12.916666666666668,60.416666666666664,34.625,100,24C139.58333333333334,13.375,158.33333333333331,-41.833333333333336,200,-41C241.66666666666669,-40.166666666666664,258.3333333333333,20.708333333333336,300,28C341.6666666666667,35.291666666666664,358.3333333333333,-8.916666666666668,400,-6C441.6666666666667,-3.083333333333333,458.3333333333333,44.083333333333336,500,42C541.6666666666666,39.916666666666664,558.3333333333334,-19.75,600,-16C641.6666666666666,-12.25,658.3333333333334,61.041666666666664,700,60C741.6666666666666,58.958333333333336,779.1666666666666,-4.125,800,-21" transform="matrix(1,0,0,1,0,230)"></path><path d="M10,10C28.75,12.916666666666668,60.416666666666664,34.625,100,24C139.58333333333334,13.375,158.33333333333331,-41.833333333333336,200,-41C241.66666666666669,-40.166666666666664,258.3333333333333,20.708333333333336,300,28C341.6666666666667,35.291666666666664,358.3333333333333,-8.916666666666668,400,-6C441.6666666666667,-3.083333333333333,458.3333333333333,44.083333333333336,500,42C541.6666666666666,39.916666666666664,558.3333333333334,-19.75,600,-16C641.6666666666666,-12.25,658.3333333333334,61.041666666666664,700,60C741.6666666666666,58.958333333333336,779.1666666666666,-4.125,800,-21" transform="matrix(1,0,0,1,0,220)"></path><path d="M10,10C28.75,12.916666666666668,60.416666666666664,34.625,100,24C139.58333333333334,13.375,158.33333333333331,-41.833333333333336,200,-41C241.66666666666669,-40.166666666666664,258.3333333333333,20.708333333333336,300,28C341.6666666666667,35.291666666666664,358.3333333333333,-8.916666666666668,400,-6C441.6666666666667,-3.083333333333333,458.3333333333333,44.083333333333336,500,42C541.6666666666666,39.916666666666664,558.3333333333334,-19.75,600,-16C641.6666666666666,-12.25,658.3333333333334,61.041666666666664,700,60C741.6666666666666,58.958333333333336,779.1666666666666,-4.125,800,-21" transform="matrix(1,0,0,1,0,210)"></path><path d="M10,10C28.75,12.916666666666668,60.416666666666664,34.625,100,24C139.58333333333334,13.375,158.33333333333331,-41.833333333333336,200,-41C241.66666666666669,-40.166666666666664,258.3333333333333,20.708333333333336,300,28C341.6666666666667,35.291666666666664,358.3333333333333,-8.916666666666668,400,-6C441.6666666666667,-3.083333333333333,458.3333333333333,44.083333333333336,500,42C541.6666666666666,39.916666666666664,558.3333333333334,-19.75,600,-16C641.6666666666666,-12.25,658.3333333333334,61.041666666666664,700,60C741.6666666666666,58.958333333333336,779.1666666666666,-4.125,800,-21" transform="matrix(1,0,0,1,0,200)"></path><path d="M10,10C28.75,12.916666666666668,60.416666666666664,34.625,100,24C139.58333333333334,13.375,158.33333333333331,-41.833333333333336,200,-41C241.66666666666669,-40.166666666666664,258.3333333333333,20.708333333333336,300,28C341.6666666666667,35.291666666666664,358.3333333333333,-8.916666666666668,400,-6C441.6666666666667,-3.083333333333333,458.3333333333333,44.083333333333336,500,42C541.6666666666666,39.916666666666664,558.3333333333334,-19.75,600,-16C641.6666666666666,-12.25,658.3333333333334,61.041666666666664,700,60C741.6666666666666,58.958333333333336,779.1666666666666,-4.125,800,-21" transform="matrix(1,0,0,1,0,190)"></path><path d="M10,10C28.75,12.916666666666668,60.416666666666664,34.625,100,24C139.58333333333334,13.375,158.33333333333331,-41.833333333333336,200,-41C241.66666666666669,-40.166666666666664,258.3333333333333,20.708333333333336,300,28C341.6666666666667,35.291666666666664,358.3333333333333,-8.916666666666668,400,-6C441.6666666666667,-3.083333333333333,458.3333333333333,44.083333333333336,500,42C541.6666666666666,39.916666666666664,558.3333333333334,-19.75,600,-16C641.6666666666666,-12.25,658.3333333333334,61.041666666666664,700,60C741.6666666666666,58.958333333333336,779.1666666666666,-4.125,800,-21" transform="matrix(1,0,0,1,0,180)"></path><path d="M10,10C28.75,12.916666666666668,60.416666666666664,34.625,100,24C139.58333333333334,13.375,158.33333333333331,-41.833333333333336,200,-41C241.66666666666669,-40.166666666666664,258.3333333333333,20.708333333333336,300,28C341.6666666666667,35.291666666666664,358.3333333333333,-8.916666666666668,400,-6C441.6666666666667,-3.083333333333333,458.3333333333333,44.083333333333336,500,42C541.6666666666666,39.916666666666664,558.3333333333334,-19.75,600,-16C641.6666666666666,-12.25,658.3333333333334,61.041666666666664,700,60C741.6666666666666,58.958333333333336,779.1666666666666,-4.125,800,-21" transform="matrix(1,0,0,1,0,170)"></path><path d="M10,10C28.75,12.916666666666668,60.416666666666664,34.625,100,24C139.58333333333334,13.375,158.33333333333331,-41.833333333333336,200,-41C241.66666666666669,-40.166666666666664,258.3333333333333,20.708333333333336,300,28C341.6666666666667,35.291666666666664,358.3333333333333,-8.916666666666668,400,-6C441.6666666666667,-3.083333333333333,458.3333333333333,44.083333333333336,500,42C541.6666666666666,39.916666666666664,558.3333333333334,-19.75,600,-16C641.6666666666666,-12.25,658.3333333333334,61.041666666666664,700,60C741.6666666666666,58.958333333333336,779.1666666666666,-4.125,800,-21" transform="matrix(1,0,0,1,0,160)"></path><path d="M10,10C28.75,12.916666666666668,60.416666666666664,34.625,100,24C139.58333333333334,13.375,158.33333333333331,-41.833333333333336,200,-41C241.66666666666669,-40.166666666666664,258.3333333333333,20.708333333333336,300,28C341.6666666666667,35.291666666666664,358.3333333333333,-8.916666666666668,400,-6C441.6666666666667,-3.083333333333333,458.3333333333333,44.083333333333336,500,42C541.6666666666666,39.916666666666664,558.3333333333334,-19.75,600,-16C641.6666666666666,-12.25,658.3333333333334,61.041666666666664,700,60C741.6666666666666,58.958333333333336,779.1666666666666,-4.125,800,-21" transform="matrix(1,0,0,1,0,150)"></path><path d="M10,10C28.75,12.916666666666668,60.416666666666664,34.625,100,24C139.58333333333334,13.375,158.33333333333331,-41.833333333333336,200,-41C241.66666666666669,-40.166666666666664,258.3333333333333,20.708333333333336,300,28C341.6666666666667,35.291666666666664,358.3333333333333,-8.916666666666668,400,-6C441.6666666666667,-3.083333333333333,458.3333333333333,44.083333333333336,500,42C541.6666666666666,39.916666666666664,558.3333333333334,-19.75,600,-16C641.6666666666666,-12.25,658.3333333333334,61.041666666666664,700,60C741.6666666666666,58.958333333333336,779.1666666666666,-4.125,800,-21" transform="matrix(1,0,0,1,0,140)"></path><path d="M10,10C28.75,12.916666666666668,60.416666666666664,34.625,100,24C139.58333333333334,13.375,158.33333333333331,-41.833333333333336,200,-41C241.66666666666669,-40.166666666666664,258.3333333333333,20.708333333333336,300,28C341.6666666666667,35.291666666666664,358.3333333333333,-8.916666666666668,400,-6C441.6666666666667,-3.083333333333333,458.3333333333333,44.083333333333336,500,42C541.6666666666666,39.916666666666664,558.3333333333334,-19.75,600,-16C641.6666666666666,-12.25,658.3333333333334,61.041666666666664,700,60C741.6666666666666,58.958333333333336,779.1666666666666,-4.125,800,-21" transform="matrix(1,0,0,1,0,130)"></path><path d="M10,10C28.75,12.916666666666668,60.416666666666664,34.625,100,24C139.58333333333334,13.375,158.33333333333331,-41.833333333333336,200,-41C241.66666666666669,-40.166666666666664,258.3333333333333,20.708333333333336,300,28C341.6666666666667,35.291666666666664,358.3333333333333,-8.916666666666668,400,-6C441.6666666666667,-3.083333333333333,458.3333333333333,44.083333333333336,500,42C541.6666666666666,39.916666666666664,558.3333333333334,-19.75,600,-16C641.6666666666666,-12.25,658.3333333333334,61.041666666666664,700,60C741.6666666666666,58.958333333333336,779.1666666666666,-4.125,800,-21" transform="matrix(1,0,0,1,0,120)"></path><path d="M10,10C28.75,12.916666666666668,60.416666666666664,34.625,100,24C139.58333333333334,13.375,158.33333333333331,-41.833333333333336,200,-41C241.66666666666669,-40.166666666666664,258.3333333333333,20.708333333333336,300,28C341.6666666666667,35.291666666666664,358.3333333333333,-8.916666666666668,400,-6C441.6666666666667,-3.083333333333333,458.3333333333333,44.083333333333336,500,42C541.6666666666666,39.916666666666664,558.3333333333334,-19.75,600,-16C641.6666666666666,-12.25,658.3333333333334,61.041666666666664,700,60C741.6666666666666,58.958333333333336,779.1666666666666,-4.125,800,-21" transform="matrix(1,0,0,1,0,110)"></path><path d="M10,10C28.75,12.916666666666668,60.416666666666664,34.625,100,24C139.58333333333334,13.375,158.33333333333331,-41.833333333333336,200,-41C241.66666666666669,-40.166666666666664,258.3333333333333,20.708333333333336,300,28C341.6666666666667,35.291666666666664,358.3333333333333,-8.916666666666668,400,-6C441.6666666666667,-3.083333333333333,458.3333333333333,44.083333333333336,500,42C541.6666666666666,39.916666666666664,558.3333333333334,-19.75,600,-16C641.6666666666666,-12.25,658.3333333333334,61.041666666666664,700,60C741.6666666666666,58.958333333333336,779.1666666666666,-4.125,800,-21" transform="matrix(1,0,0,1,0,100)"></path><path d="M10,10C28.75,12.916666666666668,60.416666666666664,34.625,100,24C139.58333333333334,13.375,158.33333333333331,-41.833333333333336,200,-41C241.66666666666669,-40.166666666666664,258.3333333333333,20.708333333333336,300,28C341.6666666666667,35.291666666666664,358.3333333333333,-8.916666666666668,400,-6C441.6666666666667,-3.083333333333333,458.3333333333333,44.083333333333336,500,42C541.6666666666666,39.916666666666664,558.3333333333334,-19.75,600,-16C641.6666666666666,-12.25,658.3333333333334,61.041666666666664,700,60C741.6666666666666,58.958333333333336,779.1666666666666,-4.125,800,-21" transform="matrix(1,0,0,1,0,90)"></path><path d="M10,10C28.75,12.916666666666668,60.416666666666664,34.625,100,24C139.58333333333334,13.375,158.33333333333331,-41.833333333333336,200,-41C241.66666666666669,-40.166666666666664,258.3333333333333,20.708333333333336,300,28C341.6666666666667,35.291666666666664,358.3333333333333,-8.916666666666668,400,-6C441.6666666666667,-3.083333333333333,458.3333333333333,44.083333333333336,500,42C541.6666666666666,39.916666666666664,558.3333333333334,-19.75,600,-16C641.6666666666666,-12.25,658.3333333333334,61.041666666666664,700,60C741.6666666666666,58.958333333333336,779.1666666666666,-4.125,800,-21" transform="matrix(1,0,0,1,0,80)"></path><path d="M10,10C28.75,12.916666666666668,60.416666666666664,34.625,100,24C139.58333333333334,13.375,158.33333333333331,-41.833333333333336,200,-41C241.66666666666669,-40.166666666666664,258.3333333333333,20.708333333333336,300,28C341.6666666666667,35.291666666666664,358.3333333333333,-8.916666666666668,400,-6C441.6666666666667,-3.083333333333333,458.3333333333333,44.083333333333336,500,42C541.6666666666666,39.916666666666664,558.3333333333334,-19.75,600,-16C641.6666666666666,-12.25,658.3333333333334,61.041666666666664,700,60C741.6666666666666,58.958333333333336,779.1666666666666,-4.125,800,-21" transform="matrix(1,0,0,1,0,70)"></path><path d="M10,10C28.75,12.916666666666668,60.416666666666664,34.625,100,24C139.58333333333334,13.375,158.33333333333331,-41.833333333333336,200,-41C241.66666666666669,-40.166666666666664,258.3333333333333,20.708333333333336,300,28C341.6666666666667,35.291666666666664,358.3333333333333,-8.916666666666668,400,-6C441.6666666666667,-3.083333333333333,458.3333333333333,44.083333333333336,500,42C541.6666666666666,39.916666666666664,558.3333333333334,-19.75,600,-16C641.6666666666666,-12.25,658.3333333333334,61.041666666666664,700,60C741.6666666666666,58.958333333333336,779.1666666666666,-4.125,800,-21" transform="matrix(1,0,0,1,0,60)"></path><path d="M10,10C28.75,12.916666666666668,60.416666666666664,34.625,100,24C139.58333333333334,13.375,158.33333333333331,-41.833333333333336,200,-41C241.66666666666669,-40.166666666666664,258.3333333333333,20.708333333333336,300,28C341.6666666666667,35.291666666666664,358.3333333333333,-8.916666666666668,400,-6C441.6666666666667,-3.083333333333333,458.3333333333333,44.083333333333336,500,42C541.6666666666666,39.916666666666664,558.3333333333334,-19.75,600,-16C641.6666666666666,-12.25,658.3333333333334,61.041666666666664,700,60C741.6666666666666,58.958333333333336,779.1666666666666,-4.125,800,-21" transform="matrix(1,0,0,1,0,50)"></path><path d="M10,10C28.75,12.916666666666668,60.416666666666664,34.625,100,24C139.58333333333334,13.375,158.33333333333331,-41.833333333333336,200,-41C241.66666666666669,-40.166666666666664,258.3333333333333,20.708333333333336,300,28C341.6666666666667,35.291666666666664,358.3333333333333,-8.916666666666668,400,-6C441.6666666666667,-3.083333333333333,458.3333333333333,44.083333333333336,500,42C541.6666666666666,39.916666666666664,558.3333333333334,-19.75,600,-16C641.6666666666666,-12.25,658.3333333333334,61.041666666666664,700,60C741.6666666666666,58.958333333333336,779.1666666666666,-4.125,800,-21" transform="matrix(1,0,0,1,0,40)"></path><path d="M10,10C28.75,12.916666666666668,60.416666666666664,34.625,100,24C139.58333333333334,13.375,158.33333333333331,-41.833333333333336,200,-41C241.66666666666669,-40.166666666666664,258.3333333333333,20.708333333333336,300,28C341.6666666666667,35.291666666666664,358.3333333333333,-8.916666666666668,400,-6C441.6666666666667,-3.083333333333333,458.3333333333333,44.083333333333336,500,42C541.6666666666666,39.916666666666664,558.3333333333334,-19.75,600,-16C641.6666666666666,-12.25,658.3333333333334,61.041666666666664,700,60C741.6666666666666,58.958333333333336,779.1666666666666,-4.125,800,-21" transform="matrix(1,0,0,1,0,30)"></path><path d="M10,10C28.75,12.916666666666668,60.416666666666664,34.625,100,24C139.58333333333334,13.375,158.33333333333331,-41.833333333333336,200,-41C241.66666666666669,-40.166666666666664,258.3333333333333,20.708333333333336,300,28C341.6666666666667,35.291666666666664,358.3333333333333,-8.916666666666668,400,-6C441.6666666666667,-3.083333333333333,458.3333333333333,44.083333333333336,500,42C541.6666666666666,39.916666666666664,558.3333333333334,-19.75,600,-16C641.6666666666666,-12.25,658.3333333333334,61.041666666666664,700,60C741.6666666666666,58.958333333333336,779.1666666666666,-4.125,800,-21" transform="matrix(1,0,0,1,0,20)"></path><path d="M10,10C28.75,12.916666666666668,60.416666666666664,34.625,100,24C139.58333333333334,13.375,158.33333333333331,-41.833333333333336,200,-41C241.66666666666669,-40.166666666666664,258.3333333333333,20.708333333333336,300,28C341.6666666666667,35.291666666666664,358.3333333333333,-8.916666666666668,400,-6C441.6666666666667,-3.083333333333333,458.3333333333333,44.083333333333336,500,42C541.6666666666666,39.916666666666664,558.3333333333334,-19.75,600,-16C641.6666666666666,-12.25,658.3333333333334,61.041666666666664,700,60C741.6666666666666,58.958333333333336,779.1666666666666,-4.125,800,-21" transform="matrix(1,0,0,1,0,10)"></path></g></svg>